<?xml version="1.0" encoding="utf-8"?>
<!-- Generator: Adobe Illustrator 25.0.0, SVG Export Plug-In . SVG Version: 6.00 Build 0)  -->
<svg version="1.1" id="Layer_1" xmlns="http://www.w3.org/2000/svg" xmlns:xlink="http://www.w3.org/1999/xlink" x="0px" y="0px"
	 viewBox="0 0 201.97 143" style="enable-background:new 0 0 201.97 143;" xml:space="preserve">
<style type="text/css">
	.st0{fill:#020202;}
	.st1{fill:#FFFFFF;}
</style>
<g>
	<path class="st0" d="M191.86,143H10.11C4.53,143,0,138.47,0,132.89V10.11C0,4.53,4.53,0,10.11,0h181.74
		c5.59,0,10.11,4.53,10.11,10.11v122.78C201.97,138.47,197.44,143,191.86,143z"/>
	<g>
		<path class="st1" d="M37.42,116.51v-87.6h14.13v87.6H37.42z M73.51,116.51L53.4,48.77h-6.29V28.91h11.23l20.11,67.74h3.7v19.86
			H73.51z M80.29,116.51v-87.6h14.13v87.6H80.29z"/>
		<path class="st1" d="M100.88,116.51v-87.6h14.68v87.6H100.88z M109.27,88.62l1.11-14.68c6.05,0,11.27-1.26,15.67-3.79
			c4.4-2.53,8.03-5.92,10.89-10.18c2.86-4.26,4.98-9.07,6.35-14.44c1.38-5.37,2.07-10.91,2.07-16.63h14.99
			c0,7.77-1.14,15.24-3.42,22.39c-2.28,7.16-5.61,13.54-9.99,19.16c-4.38,5.61-9.74,10.05-16.07,13.29
			C124.53,87,117.33,88.62,109.27,88.62z M146.53,116.51L127.1,76.16l13.51-6.29l23.94,46.64H146.53z"/>
	</g>
</g>
</svg>
